<svg width="110" height="22" viewBox="0 0 110 22" fill="none" xmlns="http://www.w3.org/2000/svg">
<mask id="mask0" mask-type="alpha" maskUnits="userSpaceOnUse" x="40" y="17" width="5" height="5">
<path fill-rule="evenodd" clip-rule="evenodd" d="M40.3348 17.043H44.8978V21.3324H40.3348V17.043Z" fill="white"/>
</mask>
<g mask="url(#mask0)">
<path fill-rule="evenodd" clip-rule="evenodd" d="M44.1165 18.9217C44.1165 19.378 43.8551 19.5384 43.1247 19.5658H42.6027H42.0034C41.2992 19.5658 41.09 19.2979 41.09 18.9217V18.3056C41.09 17.9577 41.3251 17.6602 42.0284 17.6602H42.6027H43.1247C43.8551 17.6602 44.1165 17.8497 44.1165 18.3056V18.9217ZM43.3077 17.043H42.6027H41.9253C41.5594 17.043 41.3251 17.1236 41.1419 17.2057C41.1157 17.2057 41.1157 17.2316 41.09 17.2316V17.1769V17.043H40.3348V17.1769V21.3324H41.09V19.9916C41.2479 20.0731 41.5317 20.1797 41.9757 20.1797H42.6027H43.3077C43.8289 20.1797 44.2205 20.0731 44.4818 19.8329C44.7699 19.6154 44.8978 19.2965 44.8978 18.9204V18.3043C44.8978 17.9825 44.7935 17.6588 44.5354 17.4186C44.2732 17.1769 43.8819 17.043 43.3077 17.043Z" fill="#164193"/>
</g>
<path fill-rule="evenodd" clip-rule="evenodd" d="M35.2714 17.041H39.76V17.175V17.6568H37.8806V20.0461V20.1777H37.1508V17.6568H35.2714V17.524V17.041Z" fill="#164193"/>
<path fill-rule="evenodd" clip-rule="evenodd" d="M34.0722 19.2704C34.0722 19.459 34.0722 19.5385 33.4724 19.5659H32.6114H31.1236V18.7891H32.6114H33.4724C34.0722 18.8159 34.0722 18.8694 34.0722 19.0555V19.2704ZM33.6541 18.1706H32.6114H31.1236V17.043H30.9939H30.4983H30.3664V20.1797H32.6114H33.5772C34.3073 20.1797 34.8545 19.9118 34.8545 19.2968V18.9737C34.8545 18.4912 34.4099 18.1706 33.6541 18.1706Z" fill="#164193"/>
<mask id="mask1" mask-type="alpha" maskUnits="userSpaceOnUse" x="11" y="15" width="8" height="7">
<path fill-rule="evenodd" clip-rule="evenodd" d="M11.7915 15.918H18.6788V21.3316H11.7915V15.918Z" fill="white"/>
</mask>
<g mask="url(#mask1)">
<path fill-rule="evenodd" clip-rule="evenodd" d="M17.9478 18.9178C17.9216 19.3741 17.6617 19.5345 16.9313 19.5619H16.7734H16.5397C15.8353 19.5619 15.6258 19.2664 15.6005 18.9178V18.3017C15.6005 17.9538 15.939 17.6562 16.5397 17.6562H16.7734H16.9313C17.6363 17.6562 17.9216 17.8458 17.9478 18.3017V18.9178ZM14.8695 18.9178C14.8695 19.294 14.6088 19.5619 13.9314 19.5619H13.6966H13.5643C12.8357 19.5619 12.5493 19.3741 12.5211 18.9178V18.3017C12.5493 17.8458 12.8357 17.6562 13.5398 17.6562H13.6966H13.9314C14.6339 17.6562 14.8427 17.9253 14.8695 18.3017V18.9178ZM17.1137 17.0422H16.7734H16.4354C16.096 17.0422 15.8353 17.1228 15.6783 17.2049C15.652 17.2049 15.6258 17.2308 15.6005 17.2308V15.918H14.8695V17.2308C14.6874 17.1511 14.4269 17.0422 14.0351 17.0422H13.6966H13.3831C12.8086 17.0422 12.4179 17.1761 12.1574 17.4178C11.8967 17.658 11.7915 17.9818 11.7915 18.3035V18.9196C11.7915 19.2958 11.9217 19.6147 12.1825 19.8321C12.4697 20.0723 12.8604 20.1789 13.3831 20.1789H13.6966H13.983C14.3999 20.1789 14.6874 20.0723 14.8695 19.9908V21.3316H14.9997H15.4699H15.6005V19.9908C15.7829 20.0723 16.0695 20.1789 16.4865 20.1789H16.7734H17.0877C17.6095 20.1789 18.0011 20.0723 18.2878 19.8321C18.5482 19.6147 18.6788 19.2958 18.6788 18.9196V18.3035C18.6788 17.9818 18.5742 17.658 18.3143 17.4178C18.0521 17.1761 17.6617 17.0422 17.1137 17.0422Z" fill="#164193"/>
</g>
<path fill-rule="evenodd" clip-rule="evenodd" d="M25.4882 17.041H29.5841V20.1777H28.8281V17.6568H26.218V18.9714C26.218 19.3467 26.0878 19.6688 25.8535 19.8848C25.6187 20.0962 25.2799 20.1777 24.8618 20.1777H24.6011V20.0461V19.5625H24.7324H24.8618C25.3064 19.5351 25.4617 19.4291 25.4882 18.9714V17.041Z" fill="#164193"/>
<path fill-rule="evenodd" clip-rule="evenodd" d="M23.0364 17.041H24.0521V20.1777H23.2704V17.6853L20.5053 20.1777H19.4874V17.041H19.5917H20.0881H20.2175V19.5887L23.0364 17.041Z" fill="#164193"/>
<path fill-rule="evenodd" clip-rule="evenodd" d="M93.218 19.2704C93.218 19.4325 93.1923 19.54 92.5919 19.5659H91.7293H90.2434V18.7891H91.7293H92.6184C93.218 18.8167 93.218 18.8706 93.218 19.0555V19.2704ZM92.7751 18.1703H91.7293H90.2434V17.043H90.1391H89.6173H89.4874V20.1794H91.7293H92.695C93.4277 20.1794 93.9751 19.9115 93.9751 19.2965V18.9734C93.9751 18.4909 93.5568 18.1703 92.7751 18.1703ZM95.0968 17.043H95.227V20.1794H94.4964V17.043H94.6272H95.0968Z" fill="#164193"/>
<path fill-rule="evenodd" clip-rule="evenodd" d="M82.3133 18.9217C82.3133 19.378 82.0252 19.5398 81.4262 19.5658H80.7736H80.1216C79.4427 19.5398 79.2344 19.3501 79.2085 18.9217V18.3056C79.2344 17.8234 79.4427 17.6892 80.1216 17.6602H80.7736H81.4262C82.0531 17.6602 82.3133 17.875 82.3133 18.3056V18.9217ZM81.4524 17.043H80.7736H80.0953C79.5219 17.043 79.1295 17.1772 78.8437 17.3921C78.5821 17.6326 78.4781 17.956 78.4781 18.304V18.9201C78.4781 19.3211 78.6083 19.6459 78.8953 19.8579C79.1552 20.0737 79.575 20.1794 80.0953 20.1794H80.7736H81.4261C82.0001 20.1794 82.4164 20.0477 82.704 19.8044C82.9659 19.5906 83.0676 19.2413 83.0676 18.9201V18.304C83.0676 17.9822 82.9659 17.6326 82.704 17.4186C82.4435 17.1772 82.0531 17.043 81.4524 17.043Z" fill="#164193"/>
<path fill-rule="evenodd" clip-rule="evenodd" d="M76.9892 19.2975C76.9892 19.4582 76.8598 19.5651 76.3642 19.5651H75.4766H73.9645V18.8945H75.4766H76.3129C77.0425 18.9473 76.9624 19.0282 76.9892 19.1624V19.2975ZM73.9645 17.6602H75.4766H76.3893C76.7814 17.6602 76.912 17.7679 76.912 17.9295V18.038C76.912 18.1996 76.8057 18.2786 76.3893 18.3056H75.4766H73.9645V17.6602ZM77.381 18.5721C77.5646 18.4656 77.6689 18.2769 77.6689 18.0364V17.9278C77.6689 17.3653 77.1733 17.043 76.3377 17.043H75.4766H73.1802V20.1794H73.3116H75.4766H76.3893C77.2508 20.1794 77.7475 19.8579 77.774 19.2963V19.1612C77.774 18.946 77.6161 18.7061 77.381 18.5721Z" fill="#164193"/>
<path fill-rule="evenodd" clip-rule="evenodd" d="M68.9212 18.4384H67.4612H66.5998C65.948 18.4113 65.999 18.3583 65.9725 18.1714V17.9577C65.999 17.7676 65.999 17.6889 66.5998 17.6602H67.4612H68.9212V18.4384ZM66.4954 17.043C65.7651 17.043 65.2182 17.3111 65.2182 17.9275V18.2495C65.2182 18.6793 65.5567 19.0002 66.1831 19.0537L64.642 20.1794H65.791L67.1737 19.0537H67.4612H68.9211V20.1794H69.7042V17.043H67.4612H66.4954Z" fill="#164193"/>
<path fill-rule="evenodd" clip-rule="evenodd" d="M58.1476 19.5658H56.7899H55.4084C55.6158 19.2703 55.6398 18.8408 55.6398 18.5459V17.6602H56.7899H58.1476V19.5658ZM58.9019 17.043H56.7899H54.9114V18.5995C54.9114 19.0811 54.7817 19.4037 54.468 19.5644H54.2329H54.1029V21.2515H54.8344V20.1797H56.7899H58.5645V21.2515H59.1632H59.2943V19.5644H58.9019V17.043Z" fill="#164193"/>
<path fill-rule="evenodd" clip-rule="evenodd" d="M64.6421 17.041V20.1777H63.8866V17.6568H61.3036V18.9714C61.3036 19.3467 61.1722 19.6688 60.9391 19.8848C60.6772 20.0962 60.3378 20.1777 59.946 20.1777H59.6588V20.0461V19.5625H59.7898H59.946C60.3906 19.5351 60.5199 19.4291 60.5482 18.9714V17.041H64.6421Z" fill="#164193"/>
<path fill-rule="evenodd" clip-rule="evenodd" d="M51.1337 17.041H51.2639V20.1777H50.5079V17.041H50.6381H51.1337ZM49.2568 19.2687C49.2292 19.4309 49.2292 19.5369 48.6031 19.5642H47.7699H46.2831V18.7871H47.7699H48.631C49.2568 18.8142 49.2292 18.8675 49.2568 19.0538V19.2687ZM48.8123 18.1684H47.7698H46.2831V17.041H46.1503H45.6294H45.5259V20.1777H47.7698H48.7068C49.4643 20.1777 49.9872 19.9096 49.9872 19.2946V18.9714C49.9872 18.489 49.5686 18.1684 48.8123 18.1684Z" fill="#164193"/>
<path fill-rule="evenodd" clip-rule="evenodd" d="M87.7659 19.5658H86.3815H84.9743C85.1812 19.2703 85.2088 18.8408 85.2088 18.5464V17.6602H86.3815H87.7659V19.5658ZM88.4963 17.043H86.3815H84.4785V18.5995C84.4785 19.0817 84.3474 19.4034 84.0347 19.5641H83.7991H83.67V21.2512H84.2687H84.4004V20.1794H86.3815H88.1572V21.2512H88.8879V19.5641H88.4963V17.043Z" fill="#164193"/>
<mask id="mask2" mask-type="alpha" maskUnits="userSpaceOnUse" x="0" y="0" width="17" height="15">
<path fill-rule="evenodd" clip-rule="evenodd" d="M0 0.527344H16.3842V14.4959H0V0.527344Z" fill="white"/>
</mask>
<g mask="url(#mask2)">
<path fill-rule="evenodd" clip-rule="evenodd" d="M7.98322 9.8566H5.79205L7.98322 3.74305L8.08752 3.39453H8.14052L10.1744 9.8566H7.98322ZM10.5921 0.527344H7.9832H5.68802L-6.10352e-05 14.4959H4.07079L4.85248 12.4843H7.9832H11.1131L11.7916 14.4959H16.3842L10.5921 0.527344Z" fill="#164193"/>
</g>
<path fill-rule="evenodd" clip-rule="evenodd" d="M21.2618 14.4923H17.2442L17.2448 0.523438H21.2618V6.2346H21.2905L25.8028 0.523438H30.6026L25.0716 7.0123L31.0196 14.4923H25.9579L21.2905 8.16445H21.2618V14.4923Z" fill="#164193"/>
<path fill-rule="evenodd" clip-rule="evenodd" d="M36.2387 11.8428V8.54309H37.4396C37.6739 8.54309 37.8825 8.57159 38.117 8.57159C39.2911 8.65053 40.3874 8.94576 40.3874 10.2056C40.3874 11.4114 39.3153 11.7607 38.117 11.8149C37.8825 11.8428 37.6479 11.8428 37.4125 11.8428H36.2387ZM36.2387 3.18359H37.3866C37.6479 3.18359 37.8824 3.18359 38.117 3.20981C39.1346 3.26481 39.9952 3.53354 39.9952 4.57797C39.9952 5.51725 39.1346 5.89056 38.117 6.02593C37.8565 6.053 37.5958 6.053 37.3344 6.053H36.2387V3.18359ZM38.5598 14.4686C41.2215 14.4686 44.3773 13.7689 44.3773 10.4467C44.3773 8.75854 43.3617 7.74146 41.3768 7.36416V7.30916C43.0214 6.80019 43.9869 5.83499 43.9869 4.06758C43.9869 1.68177 41.9262 0.527344 39.1346 0.527344H38.117H32.2465V14.4686H38.117H38.5598Z" fill="#164193"/>
<path fill-rule="evenodd" clip-rule="evenodd" d="M72.2159 9.99133C71.7722 10.2071 71.2763 10.3404 70.7303 10.3404V4.65719C71.2763 4.65719 71.7722 4.76434 72.2159 4.97921C73.0751 5.43374 73.6778 6.3468 73.6778 7.52659C73.6778 8.62403 73.0751 9.50973 72.2159 9.99133ZM66.7361 10.3404C66.1896 10.3404 65.6931 10.2071 65.2762 9.99133C64.3911 9.50973 63.7889 8.62403 63.7889 7.52659C63.7889 6.31973 64.3911 5.46139 65.2762 5.00429C65.6931 4.79113 66.1896 4.65719 66.7361 4.65719V10.3404ZM77.7994 7.52659C77.7994 4.1468 75.4504 2.32496 72.2159 1.89807C71.7457 1.84221 71.2501 1.81628 70.7303 1.81628V0.527344H66.7361V1.81628C66.2406 1.81628 65.7456 1.84164 65.2762 1.8975C62.0147 2.32468 59.6665 4.1468 59.6665 7.52659C59.6665 10.8477 62.0147 12.6983 65.2762 13.128C65.7456 13.181 66.2406 13.2095 66.7361 13.2095V14.4962H70.7303V13.2095C71.2501 13.2095 71.7457 13.181 72.2159 13.1283C75.4504 12.6992 77.7994 10.848 77.7994 7.52659Z" fill="#164193"/>
<mask id="mask3" mask-type="alpha" maskUnits="userSpaceOnUse" x="78" y="0" width="16" height="15">
<path fill-rule="evenodd" clip-rule="evenodd" d="M78.9471 0.285156H93.9746V14.7079H78.9471V0.285156Z" fill="white"/>
</mask>
<g mask="url(#mask3)">
<path fill-rule="evenodd" clip-rule="evenodd" d="M86.4596 3.0477C88.9135 3.0477 89.8798 5.08384 89.8798 7.52464C89.8798 9.80244 88.9135 11.9742 86.4596 11.9742C84.0344 11.9742 83.0689 9.80244 83.0689 7.52464C83.0689 5.08384 84.0344 3.0477 86.4596 3.0477ZM86.4596 14.708C91.3651 14.708 93.9746 11.9472 93.9746 7.52464C93.9746 3.02034 91.417 0.285156 86.4596 0.285156C81.5301 0.285156 78.9471 3.02034 78.9471 7.52464C78.9471 11.9472 81.5828 14.708 86.4596 14.708Z" fill="#164193"/>
</g>
<path fill-rule="evenodd" clip-rule="evenodd" d="M100.967 6.90991C100.731 6.96292 100.498 6.96292 100.263 6.96292H99.218V3.18359H100.263C100.498 3.18359 100.731 3.21067 100.967 3.23831C101.985 3.37111 102.714 3.88178 102.714 5.03279C102.714 6.24023 101.985 6.77626 100.967 6.90991ZM100.967 0.554986C100.654 0.527344 100.314 0.527344 99.976 0.527344H95.2269V14.4968H99.2179V9.58924H100.758H100.967C104.567 9.53623 106.707 7.87198 106.707 5.11258C106.707 2.19074 104.881 0.741644 100.967 0.554986Z" fill="#164193"/>
<path fill-rule="evenodd" clip-rule="evenodd" d="M52.3612 9.8566H50.1692L52.3612 3.79891L52.4926 3.39453H52.5185L54.5532 9.8566H52.3612ZM56.1972 14.4959H60.7369L54.9704 0.527344H52.3612H50.0934L44.3771 14.4959H48.4479L49.2581 12.4843H52.3612H55.4928L56.1972 14.4959Z" fill="#164193"/>
<path fill-rule="evenodd" clip-rule="evenodd" d="M108.801 1.84074C108.747 1.89403 108.695 1.91968 108.617 1.91968H108.539H108.356V1.4375H108.539H108.617C108.695 1.46201 108.747 1.49051 108.801 1.51672C108.826 1.5703 108.85 1.62444 108.85 1.6783C108.85 1.73159 108.826 1.78659 108.801 1.84074ZM109.14 1.65406C109.14 1.59992 109.14 1.54834 109.113 1.46513C109.087 1.38533 109.036 1.30412 108.932 1.25254C108.85 1.19868 108.747 1.17274 108.617 1.14453H108.539H108.068V2.77914H108.356V2.1636H108.382L108.617 2.51212L108.774 2.77914H109.14L108.695 2.1636C108.85 2.1636 108.957 2.1086 109.036 2.00145C109.113 1.9228 109.14 1.78971 109.14 1.65406ZM109.581 2.56572C109.479 2.75438 109.322 2.88774 109.14 2.99546C108.982 3.07497 108.801 3.12997 108.617 3.1579H108.539C108.331 3.1579 108.123 3.1029 107.964 2.99546C107.782 2.88774 107.626 2.72559 107.522 2.56572C107.417 2.37849 107.364 2.1907 107.364 1.95018C107.364 1.73531 107.417 1.54894 107.522 1.36057C107.626 1.17334 107.782 1.03712 107.964 0.930542C108.123 0.823676 108.331 0.769531 108.539 0.769531H108.617C108.801 0.769531 108.982 0.823676 109.14 0.930542C109.322 1.03712 109.479 1.17334 109.581 1.36057C109.687 1.52044 109.739 1.73531 109.739 1.95018C109.739 2.1907 109.687 2.37849 109.581 2.56572ZM109.817 1.22328C109.687 0.98162 109.505 0.82175 109.296 0.687242C109.087 0.552734 108.85 0.499729 108.617 0.499729C108.592 0.472656 108.566 0.472656 108.539 0.472656C108.279 0.499729 108.044 0.552734 107.808 0.687242C107.6 0.82175 107.417 0.98162 107.286 1.22328C107.156 1.43929 107.104 1.68009 107.104 1.94825C107.104 2.2147 107.156 2.48144 107.286 2.69716C107.417 2.91346 107.6 3.10097 107.808 3.23605C108.044 3.36856 108.279 3.42214 108.539 3.42214H108.617C108.85 3.42214 109.087 3.34064 109.296 3.23605C109.505 3.10097 109.687 2.91346 109.817 2.69716C109.949 2.48144 109.999 2.2147 109.999 1.94825C109.999 1.68009 109.949 1.43929 109.817 1.22328Z" fill="#164193"/>
</svg>
